<svg id="visual" viewBox="0 0 4096 2160" width="4096" height="2160" xmlns="http://www.w3.org/2000/svg" xmlns:xlink="http://www.w3.org/1999/xlink" version="1.1"><rect x="0" y="0" width="4096" height="2160" fill="#fff"></rect><defs><linearGradient id="grad1_0" x1="47.3%" y1="0%" x2="100%" y2="100%"><stop offset="12.074074074074073%" stop-color="#ffffff" stop-opacity="1"></stop><stop offset="87.92592592592592%" stop-color="#ffffff" stop-opacity="1"></stop></linearGradient></defs><defs><linearGradient id="grad2_0" x1="0%" y1="0%" x2="52.7%" y2="100%"><stop offset="12.074074074074073%" stop-color="#ffffff" stop-opacity="1"></stop><stop offset="87.92592592592592%" stop-color="#ffffff" stop-opacity="1"></stop></linearGradient></defs><g transform="translate(4096, 0)"><path d="M0 1728C-195 1731.5 -390.1 1734.9 -534 1643.4C-677.9 1551.9 -770.7 1365.5 -909.9 1252.4C-1049.1 1139.2 -1234.8 1099.3 -1361.6 989.2C-1488.3 879.1 -1556 698.8 -1607.3 522.2C-1658.5 345.7 -1693.3 172.8 -1728 0L0 0Z" fill="#000"></path></g><g transform="translate(0, 2160)"><path d="M0 -1728C156.9 -1636.9 313.8 -1545.8 488.6 -1503.6C663.3 -1461.4 855.9 -1468.1 1013.9 -1395.6C1171.9 -1323 1295.4 -1171.2 1398 -1015.7C1500.6 -860.1 1582.4 -700.8 1633.9 -530.9C1685.4 -361 1706.7 -180.5 1728 0L0 0Z" fill="#000"></path></g></svg>